:SAMPLES-PER-SECOND 30
:FULLY-SPECIFIED
:DEGREES
246
root  -44.5403 35.8107 -2.24722 84.4524 -77.1756 -90.1222
RightUpLeg  -22.9066 -9.53037 15.8278
RightLeg  45.9321 1.6925 1.76439
RightFoot  -17.0972 -0.348075 -4.60486
RightToes  -8.3237e-009 0 -3.6325e-017
Spine  5.90471 -2.79472 28.7536
Spine1  9.7302 1.37871 3.06441
HEad  -19.9367 -7.35767 -2.57581
LeftShoulder1  -0.377169 4.44771 -33.8134
LeftArm  -0.883939 8.59891 -40.2171
LeftForeArm  49.0475 -3.56915 -10.7483
LeftHand  -0.451233 10.7327 -8.08273
RightShoulder  -0.694004 -5.47327 28.56
RightArm  23.3452 2.34599 47.5806
RightForeArm  6.76272 18.912 5.2043
RightHand  -0.105886 4.0555 -1.57026
LeftUpLeg  -12.7779 -2.66816 14.0058
LeftLeg  64.4271 -19.0212 -36.3542
LeftFoot  -39.6293 -3.97535 -16.7496
LeftToes  -1.18267e-011 3.61711e-011 9.57411e-011
247
root  -45.7609 35.9754 -2.18961 86.3828 -77.5443 -91.9398
RightUpLeg  -20.3629 -10.5467 14.7486
RightLeg  45.5818 2.70975 3.26966
RightFoot  -19.1949 -0.475472 -5.04016
RightToes  -8.3237e-009 0 -3.6325e-017
Spine  4.93926 -2.1977 29.5905
Spine1  9.80424 2.0956 2.5399
HEad  -19.1971 -6.6112 -3.21893
LeftShoulder1  -0.386537 4.47218 -33.7723
LeftArm  0.848468 11.7011 -38.3114
LeftForeArm  46.7475 -5.38488 -10.8978
LeftHand  -0.624704 11.4785 -10.2483
RightShoulder  -0.704156 -5.50697 28.4795
RightArm  25.5394 3.79304 47.6777
RightForeArm  4.94711 21.0473 4.82061
RightHand  -0.14199 4.62718 -1.94452
LeftUpLeg  -12.7235 -4.12332 15.0591
LeftLeg  69.1608 -29.2849 -54.5878
LeftFoot  -34.7886 -0.228139 -1.07889
LeftToes  -1.18267e-011 3.61711e-011 9.57411e-011
248
root  -47.2216 36.3019 -2.2268 90.3769 -78.3643 -96.1479
RightUpLeg  -16.3189 -11.2866 13.0132
RightLeg  43.9437 3.91378 4.80162
RightFoot  -21.034 -0.606152 -5.45337
RightToes  -8.3237e-009 0 -3.6325e-017
Spine  3.98717 -1.1972 29.3884
Spine1  9.1553 2.73168 1.74667
HEad  -18.7727 -5.63868 -3.78307
LeftShoulder1  -0.436642 4.59783 -33.7402
LeftArm  3.3162 14.4752 -36.6671
LeftForeArm  42.3094 -8.0009 -10.6002
LeftHand  -0.753538 12.1369 -11.2932
RightShoulder  -0.683267 -5.45821 28.2753
RightArm  25.9021 4.91685 47.7171
RightForeArm  4.49224 22.7635 4.74745
RightHand  -0.145086 5.28794 -1.89088
LeftUpLeg  -13.5965 -5.99856 15.0164
LeftLeg  93.7789 -38.6673 -98.9254
LeftFoot  -20.0941 1.18217 9.73864
LeftToes  -1.18267e-011 3.61711e-011 9.57411e-011
249
root  -48.7616 36.8481 -2.57255 97.5209 -79.7101 -103.478
RightUpLeg  -11.2255 -11.3626 11.1525
RightLeg  40.2679 5.21945 5.76821
RightFoot  -21.9203 -0.704901 -6.00882
RightToes  -8.3237e-009 0 -3.6325e-017
Spine  3.10593 0.299234 27.1513
Spine1  7.99467 3.27834 0.590618
HEad  -18.4711 -4.96313 -4.16987
LeftShoulder1  -0.527915 4.81608 -34.0731
LeftArm  4.99411 16.4006 -35.3227
LeftForeArm  39.1237 -9.96964 -10.0259
LeftHand  -0.902377 12.8603 -12.355
RightShoulder  -0.663696 -5.41696 27.9985
RightArm  25.8769 5.71113 47.5288
RightForeArm  4.4591 24.4478 4.98741
RightHand  -0.209955 4.81541 -2.68103
LeftUpLeg  -14.7243 -7.55275 12.0176
LeftLeg  131.611 -30.8137 -153.417
LeftFoot  -4.53323 -0.166845 1.84199
LeftToes  -1.18267e-011 3.61711e-011 9.57411e-011
250
root  -49.7053 37.8304 -2.88793 101.325 -82.662 -107.344
RightUpLeg  -5.94174 -10.7195 7.94967
RightLeg  33.082 5.58981 5.14982
RightFoot  -20.0394 -0.553786 -5.48866
RightToes  -8.3237e-009 0 -3.6325e-017
Spine  3.04028 0.873548 22.6867
Spine1  8.23144 3.62869 -1.21884
HEad  -18.5142 -4.22392 -4.92556
LeftShoulder1  -0.446386 4.62 -33.8403
LeftArm  4.15692 17.9899 -35.1923
LeftForeArm  38.7671 -10.6159 -9.45954
LeftHand  -0.962307 12.6444 -13.6408
RightShoulder  -0.668759 -5.44196 27.8162
RightArm  26.209 6.82575 47.4767
RightForeArm  4.49223 24.8953 5.09877
RightHand  -0.184497 4.92892 -2.37699
LeftUpLeg  -11.335 -7.99709 8.34197
LeftLeg  142.354 -29.0326 -161.245
LeftFoot  -3.13116 0.237848 -2.88547
LeftToes  -1.18267e-011 3.61711e-011 9.57411e-011
251
root  -50.6405 38.7403 -3.1987 108.312 -85.3107 -114.419
RightUpLeg  -0.407149 -9.61047 5.27913
RightLeg  25.0767 5.4712 4.03806
RightFoot  -17.5685 -0.388378 -4.95282
RightToes  -8.3237e-009 0 -3.6325e-017
Spine  3.31392 1.31998 18.0521
Spine1  8.08683 3.77002 -3.03194
HEad  -18.5376 -2.93913 -4.97486
LeftShoulder1  -0.436315 4.6046 -33.4914
LeftArm  2.94084 18.9551 -35.3351
LeftForeArm  39.091 -10.3558 -9.30478
LeftHand  -0.878648 12.3953 -12.8183
RightShoulder  -0.641968 -5.35409 27.9861
RightArm  27.2408 7.81157 47.4792
RightForeArm  4.50779 24.3968 4.97673
RightHand  -0.0971748 5.07983 -1.37875
LeftUpLeg  -8.41345 -7.7152 4.86474
LeftLeg  154 -25.0358 -169.849
LeftFoot  -2.0022 0.706 -8.74138
LeftToes  -1.18267e-011 3.61711e-011 9.57411e-011
252
root  -51.5694 39.2598 -3.43608 109.113 -87.0249 -115.389
RightUpLeg  4.29553 -8.66425 3.93442
RightLeg  18.8755 4.62819 2.8277
RightFoot  -16.1013 -0.285852 -4.26069
RightToes  -8.3237e-009 0 -3.6325e-017
Spine  2.95984 1.61575 14.6729
Spine1  9.19691 3.86132 -3.83217
HEad  -18.9404 -2.15475 -4.77301
LeftShoulder1  -0.448434 4.62778 -33.742
LeftArm  1.8413 18.6479 -35.3845
LeftForeArm  39.7644 -9.83849 -9.29181
LeftHand  -0.756146 12.0573 -11.4812
RightShoulder  -0.620169 -5.29376 27.9126
RightArm  28.2899 8.92649 47.7085
RightForeArm  3.95541 23.1576 4.81494
RightHand  -0.0540723 4.84267 -0.914027
LeftUpLeg  -3.73292 -4.77069 2.40739
LeftLeg  164.969 -18.847 -175.467
LeftFoot  -5.1167 0.741195 -13.002
LeftToes  -1.18267e-011 3.61711e-011 9.57411e-011
253
root  -52.5524 39.5484 -3.61881 92.1743 -88.2132 -98.749
RightUpLeg  8.61977 -8.17776 3.03675
RightLeg  14.0546 3.70705 2.25827
RightFoot  -15.3716 -0.230121 -3.60122
RightToes  -8.3237e-009 0 -3.6325e-017
Spine  2.91103 1.60236 11.6609
Spine1  9.54482 3.52073 -3.89202
HEad  -18.642 -1.23495 -4.40072
LeftShoulder1  -0.489247 4.72576 -33.8854
LeftArm  1.04947 18.3759 -35.5941
LeftForeArm  40.6767 -9.70498 -9.14695
LeftHand  -0.664123 11.2831 -11.3199
RightShoulder  -0.567958 -5.15008 27.7178
RightArm  29.4984 9.61864 48.3272
RightForeArm  3.3829 20.7644 5.09707
RightHand  -0.0815239 5.06768 -1.20382
LeftUpLeg  0.233837 3.36929 0.171464
LeftLeg  173.374 -5.79207 -177.625
LeftFoot  -7.59859 0.567745 -15.8291
LeftToes  -1.18267e-011 3.61711e-011 9.57411e-011
254
root  -53.5651 39.5797 -3.70788 58.8756 -88.3658 -65.3076
RightUpLeg  11.3392 -7.96579 2.63952
RightLeg  11.7232 2.8353 2.16517
RightFoot  -15.9292 -0.22268 -2.87597
RightToes  -8.3237e-009 0 -3.6325e-017
Spine  2.4536 1.68954 10.1976
Spine1  9.85305 3.48756 -4.35177
HEad  -18.248 -0.619295 -3.95211
LeftShoulder1  -0.478124 4.69481 -33.9748
LeftArm  1.11245 17.4467 -35.9873
LeftForeArm  40.7697 -9.92363 -9.09927
LeftHand  -0.720219 11.6525 -11.6075
RightShoulder  -0.648827 -5.36033 28.2467
RightArm  28.389 10.2075 48.3969
RightForeArm  4.64195 17.6001 6.24216
RightHand  -0.149691 5.20946 -1.94911
LeftUpLeg  4.05537 5.82827 0.593663
LeftLeg  177.573 -2.42159 -178.666
LeftFoot  -9.10077 0.38067 -16.5479
LeftToes  -1.18267e-011 3.61711e-011 9.57411e-011
255
root  -54.6596 39.4404 -3.80322 26.1382 -87.3153 -32.6595
RightUpLeg  13.7587 -8.18513 2.58582
RightLeg  10.9128 1.66423 2.27321
RightFoot  -17.2091 -0.24523 -2.50345
RightToes  -8.3237e-009 0 -3.6325e-017
Spine  2.04338 1.65512 9.07772
Spine1  9.98287 3.32839 -4.52298
HEad  -17.8634 -0.687835 -3.39664
LeftShoulder1  -0.570412 4.91738 -34.1892
LeftArm  1.92379 15.579 -36.1436
LeftForeArm  39.9912 -9.91341 -9.35148
LeftHand  -0.766261 11.9967 -11.7118
RightShoulder  -0.630035 -5.29482 28.4494
RightArm  23.9166 9.62163 48.5871
RightForeArm  9.72052 13.9932 7.45971
RightHand  -0.133892 4.80772 -1.82098
LeftUpLeg  7.01508 5.8247 2.44683
LeftLeg  176.706 -3.8255 -179.958
LeftFoot  -8.28843 0.47733 -15.7517
LeftToes  -1.18267e-011 3.61711e-011 9.57411e-011
256
root  -55.8177 39.2949 -3.90684 9.98047 -86.1224 -16.5007
RightUpLeg  15.7028 -9.68067 1.70892
RightLeg  11.3577 2.20514 2.48745
RightFoot  -18.4645 -0.246842 -1.96641
RightToes  -8.3237e-009 0 -3.6325e-017
Spine  1.14039 1.97039 7.3444
Spine1  10.3368 3.43056 -4.82139
HEad  -17.1849 -0.685115 -2.46778
LeftShoulder1  -0.552431 4.88337 -33.8906
LeftArm  2.33919 13.925 -36.8908
LeftForeArm  38.9456 -10.3167 -9.30581
LeftHand  -0.526864 10.6658 -9.83479
RightShoulder  -0.663436 -5.34907 29.2426
RightArm  19.8324 8.54338 48.1874
RightForeArm  13.0987 10.5487 8.27576
RightHand  -0.128663 4.43796 -1.80163
LeftUpLeg  3.24885 5.76851 -0.330011
LeftLeg  172.087 5.16369 179.161
LeftFoot  -5.4948 0.922646 -17.3421
LeftToes  -1.18267e-011 3.61711e-011 9.57411e-011
